Coordinates
version=1
nRows=30
nColumns=23
inDegrees=yes

Units are S.I. units (second, meters, Newtons, ...)
If the header above contains a line with 'inDegrees', this indicates whether rotational values are in degrees (yes) or radians (no).

endheader
time	pelvis_tilt	pelvis_list	pelvis_rotation	pelvis_tx	pelvis_ty	pelvis_tz	hip_flexion_r	hip_adduction_r	hip_rotation_r	knee_angle_r	knee_angle_r_beta	ankle_angle_r	subtalar_angle_r	mtp_angle_r	hip_flexion_l	hip_adduction_l	hip_rotation_l	knee_angle_l	knee_angle_l_beta	ankle_angle_l	subtalar_angle_l	mtp_angle_l
     15.00000000	     -7.62074499	     -0.77925370	     -4.29211654	      2.24824568	      1.00391930	      1.04648835	     31.53734630	      2.94113369	     -3.99126848	     28.34074072	      0.49463924	      6.90504734	      2.49926802	      0.00000000	      0.70042330	     -3.70130299	    -10.30293126	     50.20408275	      0.87622654	    -23.81637870	     -9.95653731	      0.00000000
     15.00666667	     -6.99870931	     -1.06983146	     -4.47072840	      2.24740160	      1.00019104	      1.04697050	     31.23918459	      3.15027946	     -4.07056339	     30.90306114	      0.53936017	      8.32068432	      2.17976774	      0.00000000	      1.36183383	     -4.31697843	    -10.41665529	     53.11104369	      0.92696258	    -23.75494218	    -10.50251222	      0.00000000
     15.01333333	     -5.93350848	     -1.54749834	     -4.48026462	      2.24658404	      0.99715588	      1.04719687	     30.26394786	      3.49210565	     -4.07972774	     33.18662383	      0.57921585	      9.81435998	      1.48900451	      0.00000000	      1.56060158	     -5.07206006	    -10.31901381	     55.87709144	      0.97523922	    -23.35466778	    -11.24292063	      0.00000000
     15.02000000	     -5.39904610	     -1.76655732	     -4.55408028	      2.24526445	      0.99306870	      1.04756303	     30.04372663	      3.58872623	     -4.08861712	     35.81020774	      0.62500603	     11.88247338	      1.71115813	      0.00000000	      2.51122680	     -5.57895086	    -10.17902753	     58.79803711	      1.02621934	    -22.20572480	    -11.29648956	      0.00000000
     15.02666667	     -4.35883408	     -2.19722325	     -4.44209752	      2.24400646	      0.99007623	      1.04762351	     28.98457122	      3.87858790	     -3.98572184	     37.91650932	      0.66176793	     13.79023633	      1.28788210	      0.00000000	      2.90660025	     -6.20049500	     -9.77448082	     61.45224075	      1.07254393	    -21.00233227	    -11.88609031	      0.00000000
     15.03333333	     -3.63995809	     -2.45671936	     -4.32791571	      2.24244290	      0.98659663	      1.04768102	     28.30290059	      3.88084877	     -4.19828620	     40.07174850	      0.69938395	     15.88813876	      1.80297064	      0.00000000	      3.78771853	     -6.67888797	     -9.36850747	     64.15312483	      1.11968325	    -19.22445086	    -11.78531368	      0.00000000
     15.04000000	     -2.61278940	     -2.81765843	     -4.17449996	      2.24077973	      0.98405391	      1.04763830	     27.03090427	      4.10959180	     -4.06347078	     41.70309521	      0.72785632	     17.66397405	      1.49922248	      0.00000000	      4.32273127	     -7.12505239	     -8.77954095	     66.56483486	      1.16177553	    -17.62400590	    -12.38736690	      0.00000000
     15.04666667	     -1.85248997	     -3.15165960	     -3.90151518	      2.23903237	      0.98139095	      1.04745840	     25.94897838	      4.15455417	     -4.36168095	     43.17024004	      0.75346283	     19.47998120	      2.01769706	      0.00000000	      5.27286000	     -7.60530323	     -8.12919648	     68.96601019	      1.20368395	    -15.56518406	    -12.17767212	      0.00000000
     15.05333333	     -1.11790361	     -3.44469824	     -3.61074632	      2.23724454	      0.97924447	      1.04727707	     24.71511284	      4.21079092	     -4.57718798	     44.28939366	      0.77299574	     21.13059606	      2.27884775	      0.00000000	      6.26051537	     -7.96433906	     -7.39354566	     71.11154081	      1.24113052	    -13.70338134	    -12.34953457	      0.00000000
     15.06000000	     -0.52114822	     -3.70698879	     -3.30174433	      2.23547124	      0.97743662	      1.04711117	     23.47449981	      4.25638120	     -4.81346959	     45.11486268	      0.78740290	     22.58557822	      2.59316506	      0.00000000	      7.42387805	     -8.26146204	     -6.61666863	     73.05668502	      1.27507969	    -11.86459943	    -12.53512449	      0.00000000
     15.06666667	     -0.08719654	     -3.91442872	     -2.97393903	      2.23378930	      0.97601637	      1.04696429	     22.25551443	      4.27709999	     -5.05051939	     45.66047872	      0.79692569	     23.92762870	      2.91794363	      0.00000000	      8.76742967	     -8.46731058	     -5.81466744	     74.75910523	      1.30479253	    -10.13533842	    -12.78084360	      0.00000000
     15.07333333	      0.26857437	     -4.03641293	     -2.75868532	      2.23221346	      0.97510640	      1.04704237	     20.97702983	      4.34032864	     -5.03510101	     45.92787103	      0.80159257	     25.08694557	      2.94116021	      0.00000000	     10.12674722	     -8.58159026	     -5.16128695	     76.15262418	      1.32911403	     -8.61334257	    -13.28106858	      0.00000000
     15.08000000	      0.25260378	     -4.20386110	     -2.25857806	      2.23097872	      0.97432099	      1.04684925	     19.91728705	      4.29353405	     -5.56143454	     45.90102834	      0.80112407	     26.04192294	      3.40499622	      0.00000000	     11.97077878	     -8.71528760	     -4.24836266	     77.39959235	      1.35087773	     -7.04188768	    -13.33505373	      0.00000000
     15.08666667	      0.35096556	     -4.15559824	     -2.10811832	      2.22975527	      0.97427649	      1.04714815	     18.66577115	      4.26715284	     -5.43939915	     45.71545559	      0.79788522	     26.90737899	      3.52973349	      0.00000000	     13.49656444	     -8.66372207	     -3.80618802	     78.21769049	      1.36515623	     -5.78451277	    -13.84532881	      0.00000000
     15.09333333	      0.14352173	     -4.20479797	     -1.62454790	      2.22888566	      0.97440069	      1.04704143	     17.55562626	      4.19956281	     -5.84522637	     45.21119733	      0.78908425	     27.52055938	      3.86419353	      0.00000000	     15.42000821	     -8.63032508	     -3.03715139	     78.86724255	      1.37649305	     -4.58468926	    -14.10196274	      0.00000000
     15.10000000	      0.02012177	     -3.94022326	     -1.63315667	      2.22811643	      0.97531236	      1.04758348	     16.29804284	      4.04130934	     -5.53111010	     44.55652565	      0.77765808	     28.01048242	      4.05237669	      0.00000000	     16.95229169	     -8.41136094	     -2.99161736	     79.00898076	      1.37896685	     -3.64257801	    -14.53460493	      0.00000000
     15.10666667	     -0.15428540	     -3.83881263	     -1.36976349	      2.22758988	      0.97657058	      1.04769792	     14.93806824	      3.94879768	     -5.62049541	     43.61961894	      0.76130597	     28.30152016	      4.17070788	      0.00000000	     18.56666250	     -8.25994379	     -2.66263440	     78.98040738	      1.37846815	     -2.67759409	    -15.00484864	      0.00000000
     15.11333333	     -0.45350586	     -3.45540764	     -1.45940714	      2.22715722	      0.97819205	      1.04828008	     13.70633967	      3.67511283	     -5.27730572	     42.64373334	      0.74427355	     28.54612126	      4.38423759	      0.00000000	     20.07888198	     -7.98752756	     -2.92490051	     78.54039338	      1.37078846	     -1.98610255	    -15.29898179	      0.00000000
     15.12000000	     -0.22816837	     -3.33852129	     -1.18983166	      2.22711268	      0.98105162	      1.04820465	     11.62407396	      3.66883214	     -5.14101022	     41.12590944	      0.71778253	     28.51265850	      4.41189433	      0.00000000	     20.97832486	     -7.76519348	     -2.75147382	     77.81650491	      1.35815422	     -1.10638564	    -15.84755235	      0.00000000
     15.12666667	     -0.62647758	     -2.88543485	     -1.34141423	      2.22693220	      0.98335629	      1.04865316	     10.37625194	      3.35011530	     -4.67132342	     39.87888311	      0.69601781	     28.50315835	      4.68528222	      0.00000000	     22.38463846	     -7.36881006	     -3.14554090	     76.83808849	      1.34107764	     -0.31486295	    -16.06297343	      0.00000000
     15.13333333	     -0.16631858	     -2.59133273	     -1.26876087	      2.22727039	      0.98724991	      1.04862835	      7.93430525	      3.14428128	     -4.41687410	     38.13282041	      0.66554327	     28.27395874	      4.81295282	      0.00000000	     22.68063729	     -7.10589275	     -3.49980062	     75.45497756	      1.31693780	      0.39193530	    -16.35091463	      0.00000000
     15.14000000	     -0.16818458	     -2.14396213	     -1.37114597	      2.22759072	      0.99078526	      1.04872439	      6.09149203	      2.76898088	     -4.06101608	     36.54040595	      0.63775039	     27.91168767	      5.02387794	      0.00000000	     23.37382885	     -6.69950964	     -4.03233130	     73.86805476	      1.28924077	      1.18180934	    -16.42675040	      0.00000000
     15.14666667	     -0.76873431	     -1.68421479	     -1.54203364	      2.22781305	      0.99374540	      1.04878024	      5.00388132	      2.37532525	     -3.68235965	     35.10213680	      0.61264786	     27.37731768	      5.34631723	      0.00000000	     24.67471152	     -6.26586333	     -4.58008968	     72.14910669	      1.25923946	      1.90351267	    -16.34016941	      0.00000000
     15.15333333	     -0.09492732	     -1.25380363	     -1.51966664	      2.22873928	      0.99875592	      1.04850155	      2.24224368	      1.91637938	     -3.64852135	     33.09127001	      0.57755162	     26.32437042	      5.63111621	      0.00000000	     24.31624677	     -5.80626686	     -5.15448237	     69.91905440	      1.22031771	      2.51201247	    -16.27397276	      0.00000000
     15.16000000	     -0.05927184	     -0.90046887	     -1.57927781	      2.22959651	      1.00306200	      1.04826505	      0.27903638	      1.58503054	     -3.46733094	     31.21803495	      0.54485750	     24.97300926	      5.78200205	      0.00000000	     24.62285915	     -5.44928191	     -5.74294155	     67.61791907	      1.18015532	      3.19470202	    -15.90062896	      0.00000000
     15.16666667	     -0.14431292	     -0.46499206	     -1.63297318	      2.23051561	      1.00733165	      1.04792662	     -1.48263342	      1.13700575	     -3.35972073	     29.43568595	      0.51374964	     23.36475167	      5.88039219	      0.00000000	     24.95453271	     -4.94759492	     -6.32619028	     65.08284565	      1.13590994	      3.74813206	    -15.50536029	      0.00000000
     15.17333333	     -0.37128734	     -0.01359961	     -1.68070588	      2.23151833	      1.01149323	      1.04748077	     -3.00845019	      0.63733587	     -3.36647573	     27.76237988	      0.48454494	     21.49421365	      6.00106042	      0.00000000	     25.33843425	     -4.38372736	     -6.89219236	     62.33820586	      1.08800694	      4.21225465	    -15.00898388	      0.00000000
     15.18000000	     -0.54564214	      0.32118541	     -1.75002801	      2.23264228	      1.01576312	      1.04706700	     -4.58796586	      0.29660609	     -3.20879506	     26.02556250	      0.45423176	     19.30361630	      5.83945130	      0.00000000	     25.55644289	     -3.96772546	     -7.49702867	     59.41249751	      1.03694370	      4.61914195	    -14.34677035	      0.00000000
     15.18666667	     -0.94953225	      0.75197400	     -1.76512511	      2.23378808	      1.01967593	      1.04650604	     -5.75659532	     -0.22098736	     -3.36989454	     24.57573697	      0.42892753	     17.06955277	      5.97141274	      0.00000000	     25.93630564	     -3.33844480	     -7.97654645	     56.28286852	      0.98232137	      4.91739135	    -13.64752130	      0.00000000
     15.19333333	     -1.81372222	      1.12355389	     -1.88144560	      2.23477057	      1.02292346	      1.04601046	     -6.16264538	     -0.73338259	     -3.58160779	     23.57258582	      0.41141924	     14.81805210	      6.33707355	      0.00000000	     26.74382504	     -2.81080737	     -8.50424612	     53.03337215	      0.92560696	      5.10891479	    -12.87506306	      0.00000000
